# xmcd
#
# Track frame offsets:
#	150
#	29159
#	58317
#	97050
#	163650
#	182162
#	213657
#	251539
#	289123
#
# Disc length: 4211 seconds
#
# Revision: 0
# Processed by: cddbd v1.5.2PL0 Copyright (c) Steve Scherf et al.
# Submitted via: audiograbber 1.83.01
#
DISCID=8f107109
DTITLE=Grateful Dead - 92-06-29 Deer Creek Music Centre, Noblesville IN
DYEAR=1900
DGENRE=
TTITLE0=Victim Or The Crime
TTITLE1=Ship Of Fools
TTITLE2=Corrina
TTITLE3=Drums
TTITLE4=Space
TTITLE5=The Other One
TTITLE6=Stella Blue
TTITLE7=Sugar Magnolia
TTITLE8=Brokedown Palace
EXTD=
EXTT0=
EXTT1=
EXTT2=
EXTT3=
EXTT4=
EXTT5=
EXTT6=
EXTT7=
EXTT8=
PLAYORDER=
